<mxfile host="app.diagrams.net" agent="Mozilla/5.0 (Windows NT 10.0; Win64; x64) AppleWebKit/537.36 (KHTML, like Gecko) Chrome/128.0.0.0 Safari/537.36" version="24.7.7">
  <diagram name="Page-1" id="wKL1-lJ3wf88zTCWWPxn">
    <mxGraphModel dx="1434" dy="780" grid="1" gridSize="10" guides="1" tooltips="1" connect="1" arrows="1" fold="1" page="1" pageScale="1" pageWidth="827" pageHeight="1169" math="0" shadow="0">
      <root>
        <mxCell id="0" />
        <mxCell id="1" parent="0" />
        <mxCell id="pBb8iKvEGnMHyMaFa10k-1" value="Spring Cloud Gateway" style="ellipse;whiteSpace=wrap;html=1;align=center;newEdgeStyle={&quot;edgeStyle&quot;:&quot;entityRelationEdgeStyle&quot;,&quot;startArrow&quot;:&quot;none&quot;,&quot;endArrow&quot;:&quot;none&quot;,&quot;segment&quot;:10,&quot;curved&quot;:1,&quot;sourcePerimeterSpacing&quot;:0,&quot;targetPerimeterSpacing&quot;:0};treeFolding=1;treeMoving=1;" vertex="1" parent="1">
          <mxGeometry x="340" y="310" width="100" height="40" as="geometry" />
        </mxCell>
        <mxCell id="pBb8iKvEGnMHyMaFa10k-2" value="主要术语" style="whiteSpace=wrap;html=1;rounded=1;arcSize=50;align=center;verticalAlign=middle;strokeWidth=1;autosize=1;spacing=4;treeFolding=1;treeMoving=1;newEdgeStyle={&quot;edgeStyle&quot;:&quot;entityRelationEdgeStyle&quot;,&quot;startArrow&quot;:&quot;none&quot;,&quot;endArrow&quot;:&quot;none&quot;,&quot;segment&quot;:10,&quot;curved&quot;:1,&quot;sourcePerimeterSpacing&quot;:0,&quot;targetPerimeterSpacing&quot;:0};" vertex="1" parent="1">
          <mxGeometry x="505" y="268" width="90" height="30" as="geometry" />
        </mxCell>
        <mxCell id="pBb8iKvEGnMHyMaFa10k-3" value="" style="edgeStyle=entityRelationEdgeStyle;startArrow=none;endArrow=none;segment=10;curved=1;sourcePerimeterSpacing=0;targetPerimeterSpacing=0;rounded=0;exitX=1;exitY=0.5;exitDx=0;exitDy=0;" edge="1" target="pBb8iKvEGnMHyMaFa10k-2" parent="1" source="pBb8iKvEGnMHyMaFa10k-1">
          <mxGeometry relative="1" as="geometry">
            <mxPoint x="470" y="310" as="sourcePoint" />
          </mxGeometry>
        </mxCell>
        <mxCell id="pBb8iKvEGnMHyMaFa10k-7" value="" style="edgeStyle=entityRelationEdgeStyle;rounded=0;orthogonalLoop=1;jettySize=auto;html=1;startArrow=none;endArrow=none;segment=10;curved=1;sourcePerimeterSpacing=0;targetPerimeterSpacing=0;exitX=1;exitY=0.5;exitDx=0;exitDy=0;" edge="1" parent="1" source="pBb8iKvEGnMHyMaFa10k-2" target="pBb8iKvEGnMHyMaFa10k-6">
          <mxGeometry relative="1" as="geometry" />
        </mxCell>
        <mxCell id="pBb8iKvEGnMHyMaFa10k-20" value="" style="edgeStyle=entityRelationEdgeStyle;rounded=0;orthogonalLoop=1;jettySize=auto;html=1;startArrow=none;endArrow=none;segment=10;curved=1;sourcePerimeterSpacing=0;targetPerimeterSpacing=0;" edge="1" parent="1" source="pBb8iKvEGnMHyMaFa10k-4" target="pBb8iKvEGnMHyMaFa10k-19">
          <mxGeometry relative="1" as="geometry" />
        </mxCell>
        <mxCell id="pBb8iKvEGnMHyMaFa10k-4" value="Route 路由" style="whiteSpace=wrap;html=1;shape=partialRectangle;top=0;left=0;bottom=1;right=0;points=[[0,1],[1,1]];fillColor=none;align=center;verticalAlign=bottom;routingCenterY=0.5;snapToPoint=1;recursiveResize=0;autosize=1;treeFolding=1;treeMoving=1;newEdgeStyle={&quot;edgeStyle&quot;:&quot;entityRelationEdgeStyle&quot;,&quot;startArrow&quot;:&quot;none&quot;,&quot;endArrow&quot;:&quot;none&quot;,&quot;segment&quot;:10,&quot;curved&quot;:1,&quot;sourcePerimeterSpacing&quot;:0,&quot;targetPerimeterSpacing&quot;:0};" vertex="1" parent="1">
          <mxGeometry x="670" y="220" width="100" height="30" as="geometry" />
        </mxCell>
        <mxCell id="pBb8iKvEGnMHyMaFa10k-5" value="" style="edgeStyle=entityRelationEdgeStyle;startArrow=none;endArrow=none;segment=10;curved=1;sourcePerimeterSpacing=0;targetPerimeterSpacing=0;rounded=0;exitX=1;exitY=0.5;exitDx=0;exitDy=0;" edge="1" target="pBb8iKvEGnMHyMaFa10k-4" parent="1" source="pBb8iKvEGnMHyMaFa10k-2">
          <mxGeometry relative="1" as="geometry">
            <mxPoint x="640" y="270" as="sourcePoint" />
          </mxGeometry>
        </mxCell>
        <mxCell id="pBb8iKvEGnMHyMaFa10k-9" value="" style="edgeStyle=entityRelationEdgeStyle;rounded=0;orthogonalLoop=1;jettySize=auto;html=1;startArrow=none;endArrow=none;segment=10;curved=1;sourcePerimeterSpacing=0;targetPerimeterSpacing=0;exitX=1;exitY=0.5;exitDx=0;exitDy=0;" edge="1" parent="1" source="pBb8iKvEGnMHyMaFa10k-2" target="pBb8iKvEGnMHyMaFa10k-8">
          <mxGeometry relative="1" as="geometry" />
        </mxCell>
        <mxCell id="pBb8iKvEGnMHyMaFa10k-11" value="" style="edgeStyle=entityRelationEdgeStyle;rounded=0;orthogonalLoop=1;jettySize=auto;html=1;startArrow=none;endArrow=none;segment=10;curved=1;sourcePerimeterSpacing=0;targetPerimeterSpacing=0;" edge="1" parent="1" source="pBb8iKvEGnMHyMaFa10k-6" target="pBb8iKvEGnMHyMaFa10k-10">
          <mxGeometry relative="1" as="geometry" />
        </mxCell>
        <mxCell id="pBb8iKvEGnMHyMaFa10k-6" value="Predicate 谓词" style="whiteSpace=wrap;html=1;shape=partialRectangle;top=0;left=0;bottom=1;right=0;points=[[0,1],[1,1]];fillColor=none;align=center;verticalAlign=bottom;routingCenterY=0.5;snapToPoint=1;recursiveResize=0;autosize=1;treeFolding=1;treeMoving=1;newEdgeStyle={&quot;edgeStyle&quot;:&quot;entityRelationEdgeStyle&quot;,&quot;startArrow&quot;:&quot;none&quot;,&quot;endArrow&quot;:&quot;none&quot;,&quot;segment&quot;:10,&quot;curved&quot;:1,&quot;sourcePerimeterSpacing&quot;:0,&quot;targetPerimeterSpacing&quot;:0};" vertex="1" parent="1">
          <mxGeometry x="665" y="280" width="120" height="30" as="geometry" />
        </mxCell>
        <mxCell id="pBb8iKvEGnMHyMaFa10k-8" value="Filter 过滤器" style="whiteSpace=wrap;html=1;shape=partialRectangle;top=0;left=0;bottom=1;right=0;points=[[0,1],[1,1]];fillColor=none;align=center;verticalAlign=bottom;routingCenterY=0.5;snapToPoint=1;recursiveResize=0;autosize=1;treeFolding=1;treeMoving=1;newEdgeStyle={&quot;edgeStyle&quot;:&quot;entityRelationEdgeStyle&quot;,&quot;startArrow&quot;:&quot;none&quot;,&quot;endArrow&quot;:&quot;none&quot;,&quot;segment&quot;:10,&quot;curved&quot;:1,&quot;sourcePerimeterSpacing&quot;:0,&quot;targetPerimeterSpacing&quot;:0};" vertex="1" parent="1">
          <mxGeometry x="670" y="330" width="110" height="30" as="geometry" />
        </mxCell>
        <mxCell id="pBb8iKvEGnMHyMaFa10k-15" value="" style="edgeStyle=entityRelationEdgeStyle;rounded=0;orthogonalLoop=1;jettySize=auto;html=1;startArrow=none;endArrow=none;segment=10;curved=1;sourcePerimeterSpacing=0;targetPerimeterSpacing=0;exitX=0.942;exitY=1;exitDx=0;exitDy=0;exitPerimeter=0;" edge="1" parent="1" source="pBb8iKvEGnMHyMaFa10k-6" target="pBb8iKvEGnMHyMaFa10k-14">
          <mxGeometry relative="1" as="geometry" />
        </mxCell>
        <mxCell id="pBb8iKvEGnMHyMaFa10k-10" value="接受一个ServerWebExchange 输入" style="whiteSpace=wrap;html=1;shape=partialRectangle;top=0;left=0;bottom=1;right=0;points=[[0,1],[1,1]];fillColor=none;align=center;verticalAlign=bottom;routingCenterY=0.5;snapToPoint=1;recursiveResize=0;autosize=1;treeFolding=1;treeMoving=1;newEdgeStyle={&quot;edgeStyle&quot;:&quot;entityRelationEdgeStyle&quot;,&quot;startArrow&quot;:&quot;none&quot;,&quot;endArrow&quot;:&quot;none&quot;,&quot;segment&quot;:10,&quot;curved&quot;:1,&quot;sourcePerimeterSpacing&quot;:0,&quot;targetPerimeterSpacing&quot;:0};" vertex="1" parent="1">
          <mxGeometry x="810" y="280" width="230" height="30" as="geometry" />
        </mxCell>
        <mxCell id="pBb8iKvEGnMHyMaFa10k-18" value="" style="edgeStyle=entityRelationEdgeStyle;rounded=0;orthogonalLoop=1;jettySize=auto;html=1;startArrow=none;endArrow=none;segment=10;curved=1;sourcePerimeterSpacing=0;targetPerimeterSpacing=0;" edge="1" parent="1" source="pBb8iKvEGnMHyMaFa10k-8" target="pBb8iKvEGnMHyMaFa10k-17">
          <mxGeometry relative="1" as="geometry" />
        </mxCell>
        <mxCell id="pBb8iKvEGnMHyMaFa10k-14" value="可以匹配HTTP请求中的任何内容，无论是 headers 还是 parameters" style="whiteSpace=wrap;html=1;shape=partialRectangle;top=0;left=0;bottom=1;right=0;points=[[0,1],[1,1]];fillColor=none;align=center;verticalAlign=bottom;routingCenterY=0.5;snapToPoint=1;recursiveResize=0;autosize=1;treeFolding=1;treeMoving=1;newEdgeStyle={&quot;edgeStyle&quot;:&quot;entityRelationEdgeStyle&quot;,&quot;startArrow&quot;:&quot;none&quot;,&quot;endArrow&quot;:&quot;none&quot;,&quot;segment&quot;:10,&quot;curved&quot;:1,&quot;sourcePerimeterSpacing&quot;:0,&quot;targetPerimeterSpacing&quot;:0};" vertex="1" parent="1">
          <mxGeometry x="827" y="320" width="400" height="30" as="geometry" />
        </mxCell>
        <mxCell id="pBb8iKvEGnMHyMaFa10k-17" value="GatewayFilter 的一个实例，可以在发往下游之前修改request和response" style="whiteSpace=wrap;html=1;shape=partialRectangle;top=0;left=0;bottom=1;right=0;points=[[0,1],[1,1]];fillColor=none;align=center;verticalAlign=bottom;routingCenterY=0.5;snapToPoint=1;recursiveResize=0;autosize=1;treeFolding=1;treeMoving=1;newEdgeStyle={&quot;edgeStyle&quot;:&quot;entityRelationEdgeStyle&quot;,&quot;startArrow&quot;:&quot;none&quot;,&quot;endArrow&quot;:&quot;none&quot;,&quot;segment&quot;:10,&quot;curved&quot;:1,&quot;sourcePerimeterSpacing&quot;:0,&quot;targetPerimeterSpacing&quot;:0};" vertex="1" parent="1">
          <mxGeometry x="817" y="370" width="420" height="30" as="geometry" />
        </mxCell>
        <mxCell id="pBb8iKvEGnMHyMaFa10k-23" value="" style="edgeStyle=entityRelationEdgeStyle;rounded=0;orthogonalLoop=1;jettySize=auto;html=1;startArrow=none;endArrow=none;segment=10;curved=1;sourcePerimeterSpacing=0;targetPerimeterSpacing=0;" edge="1" parent="1" source="pBb8iKvEGnMHyMaFa10k-4" target="pBb8iKvEGnMHyMaFa10k-22">
          <mxGeometry relative="1" as="geometry" />
        </mxCell>
        <mxCell id="pBb8iKvEGnMHyMaFa10k-19" value="Gateway中最基础的模块" style="whiteSpace=wrap;html=1;shape=partialRectangle;top=0;left=0;bottom=1;right=0;points=[[0,1],[1,1]];fillColor=none;align=center;verticalAlign=bottom;routingCenterY=0.5;snapToPoint=1;recursiveResize=0;autosize=1;treeFolding=1;treeMoving=1;newEdgeStyle={&quot;edgeStyle&quot;:&quot;entityRelationEdgeStyle&quot;,&quot;startArrow&quot;:&quot;none&quot;,&quot;endArrow&quot;:&quot;none&quot;,&quot;segment&quot;:10,&quot;curved&quot;:1,&quot;sourcePerimeterSpacing&quot;:0,&quot;targetPerimeterSpacing&quot;:0};" vertex="1" parent="1">
          <mxGeometry x="817" y="130" width="170" height="30" as="geometry" />
        </mxCell>
        <mxCell id="pBb8iKvEGnMHyMaFa10k-22" value="通过ID，目的URI，谓词集合与过滤器集合 共同组成。&lt;div&gt;谓词集和中的条目是and 的关系，只有都为true 整体才能匹配上&lt;/div&gt;" style="whiteSpace=wrap;html=1;shape=partialRectangle;top=0;left=0;bottom=1;right=0;points=[[0,1],[1,1]];fillColor=none;align=center;verticalAlign=bottom;routingCenterY=0.5;snapToPoint=1;recursiveResize=0;autosize=1;treeFolding=1;treeMoving=1;newEdgeStyle={&quot;edgeStyle&quot;:&quot;entityRelationEdgeStyle&quot;,&quot;startArrow&quot;:&quot;none&quot;,&quot;endArrow&quot;:&quot;none&quot;,&quot;segment&quot;:10,&quot;curved&quot;:1,&quot;sourcePerimeterSpacing&quot;:0,&quot;targetPerimeterSpacing&quot;:0};" vertex="1" parent="1">
          <mxGeometry x="827" y="200" width="380" height="40" as="geometry" />
        </mxCell>
        <mxCell id="pBb8iKvEGnMHyMaFa10k-24" value="Rout Predicate Factories" style="whiteSpace=wrap;html=1;rounded=1;arcSize=50;align=center;verticalAlign=middle;strokeWidth=1;autosize=1;spacing=4;treeFolding=1;treeMoving=1;newEdgeStyle={&quot;edgeStyle&quot;:&quot;entityRelationEdgeStyle&quot;,&quot;startArrow&quot;:&quot;none&quot;,&quot;endArrow&quot;:&quot;none&quot;,&quot;segment&quot;:10,&quot;curved&quot;:1,&quot;sourcePerimeterSpacing&quot;:0,&quot;targetPerimeterSpacing&quot;:0};" vertex="1" parent="1">
          <mxGeometry x="473" y="514" width="180" height="30" as="geometry" />
        </mxCell>
        <mxCell id="pBb8iKvEGnMHyMaFa10k-25" value="" style="edgeStyle=entityRelationEdgeStyle;startArrow=none;endArrow=none;segment=10;curved=1;sourcePerimeterSpacing=0;targetPerimeterSpacing=0;rounded=0;exitX=1.01;exitY=0.675;exitDx=0;exitDy=0;exitPerimeter=0;" edge="1" target="pBb8iKvEGnMHyMaFa10k-24" parent="1" source="pBb8iKvEGnMHyMaFa10k-1">
          <mxGeometry relative="1" as="geometry">
            <mxPoint x="465" y="450" as="sourcePoint" />
          </mxGeometry>
        </mxCell>
      </root>
    </mxGraphModel>
  </diagram>
</mxfile>
